<mxfile host="Electron" modified="2024-12-02T15:53:03.168Z" agent="Mozilla/5.0 (X11; Linux x86_64) AppleWebKit/537.36 (KHTML, like Gecko) draw.io/24.4.8 Chrome/124.0.6367.207 Electron/30.0.6 Safari/537.36" etag="cI8iaNr9rQLl4cUjreb6" version="24.4.8" type="device">
  <diagram name="Page-1" id="16e2658f-23c8-b752-8be9-c03fbebb8bbe">
    <mxGraphModel dx="1041" dy="766" grid="1" gridSize="10" guides="1" tooltips="1" connect="1" arrows="1" fold="1" page="1" pageScale="1" pageWidth="1169" pageHeight="827" background="none" math="0" shadow="0">
      <root>
        <mxCell id="0" />
        <mxCell id="1" parent="0" />
        <mxCell id="btig7-3qisSnMjI_CleR-197" value="" style="group" vertex="1" connectable="0" parent="1">
          <mxGeometry x="240" y="110" width="30" height="40" as="geometry" />
        </mxCell>
        <mxCell id="btig7-3qisSnMjI_CleR-194" value="" style="shape=cylinder3;whiteSpace=wrap;html=1;boundedLbl=1;backgroundOutline=1;size=9.33333899758074;direction=north;" vertex="1" parent="btig7-3qisSnMjI_CleR-197">
          <mxGeometry width="30" height="40" as="geometry" />
        </mxCell>
        <mxCell id="btig7-3qisSnMjI_CleR-196" value="" style="ellipse;whiteSpace=wrap;html=1;" vertex="1" parent="btig7-3qisSnMjI_CleR-197">
          <mxGeometry x="3" y="6.666666666666668" width="12" height="26.66666666666667" as="geometry" />
        </mxCell>
        <mxCell id="btig7-3qisSnMjI_CleR-2" value="&lt;div style=&quot;&quot;&gt;&lt;br&gt;&lt;/div&gt;" style="rounded=0;whiteSpace=wrap;html=1;align=center;strokeWidth=2;fillColor=#E6E6E6;" vertex="1" parent="1">
          <mxGeometry x="480" y="180" width="130" height="150" as="geometry" />
        </mxCell>
        <mxCell id="btig7-3qisSnMjI_CleR-1" value="" style="rounded=0;whiteSpace=wrap;html=1;strokeWidth=2;fillColor=#E6E6E6;" vertex="1" parent="1">
          <mxGeometry x="130" y="190" width="111.75" height="130" as="geometry" />
        </mxCell>
        <mxCell id="btig7-3qisSnMjI_CleR-3" value="" style="rounded=0;whiteSpace=wrap;html=1;strokeWidth=2;fillColor=#E6E6E6;" vertex="1" parent="1">
          <mxGeometry x="640" y="180" width="110" height="140" as="geometry" />
        </mxCell>
        <mxCell id="btig7-3qisSnMjI_CleR-4" value="&lt;h3&gt;&lt;br&gt;&lt;/h3&gt;" style="rounded=0;whiteSpace=wrap;html=1;strokeWidth=2;fillColor=#E6E6E6;" vertex="1" parent="1">
          <mxGeometry x="340" y="20" width="110" height="120" as="geometry" />
        </mxCell>
        <mxCell id="btig7-3qisSnMjI_CleR-75" style="edgeStyle=orthogonalEdgeStyle;rounded=0;orthogonalLoop=1;jettySize=auto;html=1;exitX=0.75;exitY=1;exitDx=0;exitDy=0;entryX=0.5;entryY=1;entryDx=0;entryDy=0;endArrow=none;endFill=0;" edge="1" parent="1" source="btig7-3qisSnMjI_CleR-5" target="btig7-3qisSnMjI_CleR-20">
          <mxGeometry relative="1" as="geometry">
            <Array as="points">
              <mxPoint x="383" y="350" />
              <mxPoint x="595" y="350" />
            </Array>
          </mxGeometry>
        </mxCell>
        <mxCell id="btig7-3qisSnMjI_CleR-5" value="" style="rounded=0;whiteSpace=wrap;html=1;strokeWidth=2;fillColor=#E6E6E6;" vertex="1" parent="1">
          <mxGeometry x="310" y="210" width="97" height="100" as="geometry" />
        </mxCell>
        <mxCell id="btig7-3qisSnMjI_CleR-8" value="" style="pointerEvents=1;verticalLabelPosition=bottom;shadow=0;dashed=0;align=center;html=1;verticalAlign=top;shape=mxgraph.electrical.signal_sources.source;aspect=fixed;points=[[0.5,0,0],[1,0.5,0],[0.5,1,0],[0,0.5,0]];elSignalType=ac;" vertex="1" parent="1">
          <mxGeometry x="350" y="31" width="20" height="20" as="geometry" />
        </mxCell>
        <mxCell id="btig7-3qisSnMjI_CleR-11" value="" style="pointerEvents=1;verticalLabelPosition=bottom;shadow=0;dashed=0;align=center;html=1;verticalAlign=top;shape=mxgraph.electrical.signal_sources.protective_earth;" vertex="1" parent="1">
          <mxGeometry x="370" y="350" width="25" height="20" as="geometry" />
        </mxCell>
        <mxCell id="btig7-3qisSnMjI_CleR-15" value="" style="verticalLabelPosition=bottom;shadow=0;dashed=0;align=center;html=1;verticalAlign=top;strokeWidth=1;shape=ellipse;" vertex="1" parent="1">
          <mxGeometry x="590" y="240" width="10" height="10" as="geometry" />
        </mxCell>
        <mxCell id="btig7-3qisSnMjI_CleR-16" value="" style="verticalLabelPosition=bottom;shadow=0;dashed=0;align=center;html=1;verticalAlign=top;strokeWidth=1;shape=ellipse;" vertex="1" parent="1">
          <mxGeometry x="590" y="260" width="10" height="10" as="geometry" />
        </mxCell>
        <mxCell id="btig7-3qisSnMjI_CleR-18" value="Channel in" style="text;html=1;align=right;verticalAlign=middle;resizable=0;points=[];autosize=1;strokeColor=none;fillColor=none;" vertex="1" parent="1">
          <mxGeometry x="126" y="236" width="80" height="30" as="geometry" />
        </mxCell>
        <mxCell id="btig7-3qisSnMjI_CleR-19" value="" style="verticalLabelPosition=bottom;shadow=0;dashed=0;align=center;html=1;verticalAlign=top;strokeWidth=1;shape=ellipse;" vertex="1" parent="1">
          <mxGeometry x="590" y="280" width="10" height="10" as="geometry" />
        </mxCell>
        <mxCell id="btig7-3qisSnMjI_CleR-20" value="" style="verticalLabelPosition=bottom;shadow=0;dashed=0;align=center;html=1;verticalAlign=top;strokeWidth=1;shape=ellipse;" vertex="1" parent="1">
          <mxGeometry x="590" y="300" width="10" height="10" as="geometry" />
        </mxCell>
        <mxCell id="btig7-3qisSnMjI_CleR-21" value="Ground" style="text;html=1;align=right;verticalAlign=middle;resizable=0;points=[];autosize=1;strokeColor=none;fillColor=none;" vertex="1" parent="1">
          <mxGeometry x="525" y="270" width="60" height="30" as="geometry" />
        </mxCell>
        <mxCell id="btig7-3qisSnMjI_CleR-22" value="&lt;div style=&quot;&quot;&gt;&lt;span style=&quot;background-color: initial;&quot;&gt;Guard&lt;/span&gt;&lt;/div&gt;" style="text;html=1;align=right;verticalAlign=middle;resizable=0;points=[];autosize=1;strokeColor=none;fillColor=none;" vertex="1" parent="1">
          <mxGeometry x="525" y="290" width="60" height="30" as="geometry" />
        </mxCell>
        <mxCell id="btig7-3qisSnMjI_CleR-23" value="&lt;h4 style=&quot;text-align: center;&quot;&gt;&lt;span style=&quot;background-color: initial;&quot;&gt;AC-DC transfer&lt;br&gt;&lt;/span&gt;&lt;span style=&quot;background-color: initial;&quot;&gt;standard&lt;/span&gt;&lt;/h4&gt;" style="text;html=1;align=right;verticalAlign=middle;resizable=0;points=[];autosize=1;strokeColor=none;fillColor=none;" vertex="1" parent="1">
          <mxGeometry x="495" y="175" width="110" height="70" as="geometry" />
        </mxCell>
        <mxCell id="btig7-3qisSnMjI_CleR-24" value="DC&amp;nbsp;&lt;span style=&quot;background-color: initial;&quot;&gt;out Lo&lt;/span&gt;" style="text;html=1;align=right;verticalAlign=middle;resizable=0;points=[];autosize=1;strokeColor=none;fillColor=none;" vertex="1" parent="1">
          <mxGeometry x="505" y="250" width="80" height="30" as="geometry" />
        </mxCell>
        <mxCell id="btig7-3qisSnMjI_CleR-28" value="DC&amp;nbsp;&lt;span style=&quot;background-color: initial;&quot;&gt;in Hi&lt;/span&gt;" style="text;html=1;align=left;verticalAlign=middle;resizable=0;points=[];autosize=1;strokeColor=none;fillColor=none;" vertex="1" parent="1">
          <mxGeometry x="665" y="230" width="70" height="30" as="geometry" />
        </mxCell>
        <mxCell id="btig7-3qisSnMjI_CleR-32" value="&lt;div style=&quot;&quot;&gt;&lt;span style=&quot;background-color: initial;&quot;&gt;Guard to Lo&lt;/span&gt;&lt;/div&gt;" style="text;html=1;align=left;verticalAlign=middle;resizable=0;points=[];autosize=1;strokeColor=none;fillColor=none;" vertex="1" parent="1">
          <mxGeometry x="665" y="280" width="90" height="30" as="geometry" />
        </mxCell>
        <mxCell id="btig7-3qisSnMjI_CleR-33" value="DC&amp;nbsp;&lt;span style=&quot;background-color: initial;&quot;&gt;in Lo&lt;/span&gt;" style="text;html=1;align=left;verticalAlign=middle;resizable=0;points=[];autosize=1;strokeColor=none;fillColor=none;" vertex="1" parent="1">
          <mxGeometry x="665" y="250" width="70" height="30" as="geometry" />
        </mxCell>
        <mxCell id="btig7-3qisSnMjI_CleR-34" value="" style="verticalLabelPosition=bottom;shadow=0;dashed=0;align=center;html=1;verticalAlign=top;strokeWidth=1;shape=ellipse;" vertex="1" parent="1">
          <mxGeometry x="650" y="240" width="10" height="10" as="geometry" />
        </mxCell>
        <mxCell id="btig7-3qisSnMjI_CleR-35" value="" style="verticalLabelPosition=bottom;shadow=0;dashed=0;align=center;html=1;verticalAlign=top;strokeWidth=1;shape=ellipse;" vertex="1" parent="1">
          <mxGeometry x="650" y="260" width="10" height="10" as="geometry" />
        </mxCell>
        <mxCell id="btig7-3qisSnMjI_CleR-38" value="&lt;h4 style=&quot;text-align: center;&quot;&gt;voltmeter&lt;/h4&gt;" style="text;html=1;align=right;verticalAlign=middle;resizable=0;points=[];autosize=1;strokeColor=none;fillColor=none;" vertex="1" parent="1">
          <mxGeometry x="650" y="170" width="80" height="60" as="geometry" />
        </mxCell>
        <mxCell id="btig7-3qisSnMjI_CleR-39" value="" style="endArrow=none;html=1;rounded=0;exitX=0;exitY=0.5;exitDx=0;exitDy=0;entryX=1;entryY=0.5;entryDx=0;entryDy=0;" edge="1" parent="1" source="btig7-3qisSnMjI_CleR-34" target="btig7-3qisSnMjI_CleR-15">
          <mxGeometry width="50" height="50" relative="1" as="geometry">
            <mxPoint x="450" y="460" as="sourcePoint" />
            <mxPoint x="500" y="410" as="targetPoint" />
          </mxGeometry>
        </mxCell>
        <mxCell id="btig7-3qisSnMjI_CleR-40" value="" style="endArrow=none;html=1;rounded=0;exitX=0;exitY=0.5;exitDx=0;exitDy=0;entryX=1;entryY=0.5;entryDx=0;entryDy=0;" edge="1" parent="1" source="btig7-3qisSnMjI_CleR-35" target="btig7-3qisSnMjI_CleR-16">
          <mxGeometry width="50" height="50" relative="1" as="geometry">
            <mxPoint x="700" y="389.81" as="sourcePoint" />
            <mxPoint x="610" y="389.81" as="targetPoint" />
          </mxGeometry>
        </mxCell>
        <mxCell id="btig7-3qisSnMjI_CleR-41" value="" style="endArrow=none;html=1;rounded=0;exitX=1;exitY=0.5;exitDx=0;exitDy=0;entryX=1;entryY=0.5;entryDx=0;entryDy=0;" edge="1" parent="1" source="btig7-3qisSnMjI_CleR-19" target="btig7-3qisSnMjI_CleR-20">
          <mxGeometry width="50" height="50" relative="1" as="geometry">
            <mxPoint x="590" y="280" as="sourcePoint" />
            <mxPoint x="620" y="285" as="targetPoint" />
            <Array as="points">
              <mxPoint x="620" y="285" />
              <mxPoint x="620" y="305" />
            </Array>
          </mxGeometry>
        </mxCell>
        <mxCell id="btig7-3qisSnMjI_CleR-65" value="Clock in" style="text;html=1;align=right;verticalAlign=middle;resizable=0;points=[];autosize=1;strokeColor=none;fillColor=none;" vertex="1" parent="1">
          <mxGeometry x="135" y="195" width="70" height="30" as="geometry" />
        </mxCell>
        <mxCell id="btig7-3qisSnMjI_CleR-68" value="Clock in/out" style="text;html=1;align=left;verticalAlign=middle;resizable=0;points=[];autosize=1;strokeColor=none;fillColor=none;" vertex="1" parent="1">
          <mxGeometry x="374" y="70" width="90" height="30" as="geometry" />
        </mxCell>
        <mxCell id="btig7-3qisSnMjI_CleR-72" value="&lt;h3 style=&quot;text-align: center;&quot;&gt;digitizer&lt;br&gt;NI 5922&lt;/h3&gt;" style="text;html=1;align=right;verticalAlign=middle;resizable=0;points=[];autosize=1;strokeColor=none;fillColor=none;" vertex="1" parent="1">
          <mxGeometry x="140" y="250" width="80" height="80" as="geometry" />
        </mxCell>
        <mxCell id="btig7-3qisSnMjI_CleR-73" value="&lt;h4 style=&quot;text-align: center;&quot;&gt;AC source&lt;/h4&gt;" style="text;html=1;align=right;verticalAlign=middle;resizable=0;points=[];autosize=1;strokeColor=none;fillColor=none;" vertex="1" parent="1">
          <mxGeometry x="356" y="10" width="80" height="60" as="geometry" />
        </mxCell>
        <mxCell id="btig7-3qisSnMjI_CleR-101" value="&lt;h4 style=&quot;text-align: center;&quot;&gt;T-connector&lt;/h4&gt;" style="text;html=1;align=right;verticalAlign=middle;resizable=0;points=[];autosize=1;strokeColor=none;fillColor=none;" vertex="1" parent="1">
          <mxGeometry x="304.5" y="260" width="90" height="60" as="geometry" />
        </mxCell>
        <mxCell id="btig7-3qisSnMjI_CleR-137" value="" style="group" vertex="1" connectable="0" parent="1">
          <mxGeometry x="210" y="240" width="130" height="20" as="geometry" />
        </mxCell>
        <mxCell id="btig7-3qisSnMjI_CleR-136" style="edgeStyle=orthogonalEdgeStyle;rounded=0;orthogonalLoop=1;jettySize=auto;html=1;exitX=0;exitY=1;exitDx=0;exitDy=-5.321001406069172;exitPerimeter=0;entryX=0.5;entryY=1;entryDx=0;entryDy=0;endArrow=none;endFill=0;" edge="1" parent="btig7-3qisSnMjI_CleR-137" source="btig7-3qisSnMjI_CleR-113" target="btig7-3qisSnMjI_CleR-123">
          <mxGeometry relative="1" as="geometry" />
        </mxCell>
        <mxCell id="btig7-3qisSnMjI_CleR-113" value="" style="shape=cylinder3;whiteSpace=wrap;html=1;boundedLbl=1;backgroundOutline=1;size=5.321001406069172;direction=north;" vertex="1" parent="btig7-3qisSnMjI_CleR-137">
          <mxGeometry x="40" width="50" height="20" as="geometry" />
        </mxCell>
        <mxCell id="btig7-3qisSnMjI_CleR-114" value="" style="verticalLabelPosition=bottom;shadow=0;dashed=0;align=center;html=1;verticalAlign=top;strokeWidth=1;shape=ellipse;" vertex="1" parent="btig7-3qisSnMjI_CleR-137">
          <mxGeometry width="20" height="20" as="geometry" />
        </mxCell>
        <mxCell id="btig7-3qisSnMjI_CleR-115" value="" style="verticalLabelPosition=bottom;shadow=0;dashed=0;align=center;html=1;verticalAlign=top;strokeWidth=1;shape=ellipse;" vertex="1" parent="btig7-3qisSnMjI_CleR-137">
          <mxGeometry x="6.5" y="6.5" width="7" height="7" as="geometry" />
        </mxCell>
        <mxCell id="btig7-3qisSnMjI_CleR-118" value="" style="endArrow=none;html=1;rounded=0;curved=0;endFill=0;sourcePerimeterSpacing=0;strokeColor=default;" edge="1" parent="btig7-3qisSnMjI_CleR-137">
          <mxGeometry width="50" height="50" relative="1" as="geometry">
            <mxPoint x="10" y="10" as="sourcePoint" />
            <mxPoint x="50" y="10" as="targetPoint" />
          </mxGeometry>
        </mxCell>
        <mxCell id="btig7-3qisSnMjI_CleR-120" value="" style="endArrow=none;html=1;rounded=0;curved=0;endFill=0;dashed=1;" edge="1" parent="btig7-3qisSnMjI_CleR-137">
          <mxGeometry width="50" height="50" relative="1" as="geometry">
            <mxPoint x="50" y="9.940000000000055" as="sourcePoint" />
            <mxPoint x="90" y="9.940000000000055" as="targetPoint" />
          </mxGeometry>
        </mxCell>
        <mxCell id="btig7-3qisSnMjI_CleR-123" value="" style="verticalLabelPosition=bottom;shadow=0;dashed=0;align=center;html=1;verticalAlign=top;strokeWidth=1;shape=ellipse;" vertex="1" parent="btig7-3qisSnMjI_CleR-137">
          <mxGeometry x="110" width="20" height="20" as="geometry" />
        </mxCell>
        <mxCell id="btig7-3qisSnMjI_CleR-124" value="" style="verticalLabelPosition=bottom;shadow=0;dashed=0;align=center;html=1;verticalAlign=top;strokeWidth=1;shape=ellipse;" vertex="1" parent="btig7-3qisSnMjI_CleR-137">
          <mxGeometry x="116.5" y="6.5" width="7" height="7" as="geometry" />
        </mxCell>
        <mxCell id="btig7-3qisSnMjI_CleR-122" value="" style="endArrow=none;html=1;rounded=0;curved=0;endFill=0;" edge="1" parent="btig7-3qisSnMjI_CleR-137">
          <mxGeometry width="50" height="50" relative="1" as="geometry">
            <mxPoint x="90" y="10.020000000000095" as="sourcePoint" />
            <mxPoint x="120" y="9.940000000000055" as="targetPoint" />
          </mxGeometry>
        </mxCell>
        <mxCell id="btig7-3qisSnMjI_CleR-135" style="edgeStyle=orthogonalEdgeStyle;rounded=0;orthogonalLoop=1;jettySize=auto;html=1;exitX=0.5;exitY=1;exitDx=0;exitDy=0;entryX=0;entryY=0;entryDx=0;entryDy=5.321001406069172;entryPerimeter=0;endArrow=none;endFill=0;" edge="1" parent="btig7-3qisSnMjI_CleR-137" source="btig7-3qisSnMjI_CleR-114" target="btig7-3qisSnMjI_CleR-113">
          <mxGeometry relative="1" as="geometry" />
        </mxCell>
        <mxCell id="btig7-3qisSnMjI_CleR-139" value="" style="group" vertex="1" connectable="0" parent="1">
          <mxGeometry x="380" y="240" width="130" height="20" as="geometry" />
        </mxCell>
        <mxCell id="btig7-3qisSnMjI_CleR-140" style="edgeStyle=orthogonalEdgeStyle;rounded=0;orthogonalLoop=1;jettySize=auto;html=1;exitX=0;exitY=1;exitDx=0;exitDy=-5.321001406069172;exitPerimeter=0;entryX=0.5;entryY=1;entryDx=0;entryDy=0;endArrow=none;endFill=0;" edge="1" parent="btig7-3qisSnMjI_CleR-139" source="btig7-3qisSnMjI_CleR-141" target="btig7-3qisSnMjI_CleR-146">
          <mxGeometry relative="1" as="geometry" />
        </mxCell>
        <mxCell id="btig7-3qisSnMjI_CleR-141" value="" style="shape=cylinder3;whiteSpace=wrap;html=1;boundedLbl=1;backgroundOutline=1;size=5.321001406069172;direction=north;" vertex="1" parent="btig7-3qisSnMjI_CleR-139">
          <mxGeometry x="40" width="50" height="20" as="geometry" />
        </mxCell>
        <mxCell id="btig7-3qisSnMjI_CleR-142" value="" style="verticalLabelPosition=bottom;shadow=0;dashed=0;align=center;html=1;verticalAlign=top;strokeWidth=1;shape=ellipse;" vertex="1" parent="btig7-3qisSnMjI_CleR-139">
          <mxGeometry width="20" height="20" as="geometry" />
        </mxCell>
        <mxCell id="btig7-3qisSnMjI_CleR-143" value="" style="verticalLabelPosition=bottom;shadow=0;dashed=0;align=center;html=1;verticalAlign=top;strokeWidth=1;shape=ellipse;" vertex="1" parent="btig7-3qisSnMjI_CleR-139">
          <mxGeometry x="6.5" y="6.5" width="7" height="7" as="geometry" />
        </mxCell>
        <mxCell id="btig7-3qisSnMjI_CleR-144" value="" style="endArrow=none;html=1;rounded=0;curved=0;endFill=0;sourcePerimeterSpacing=0;strokeColor=default;" edge="1" parent="btig7-3qisSnMjI_CleR-139">
          <mxGeometry width="50" height="50" relative="1" as="geometry">
            <mxPoint x="10" y="10" as="sourcePoint" />
            <mxPoint x="50" y="10" as="targetPoint" />
          </mxGeometry>
        </mxCell>
        <mxCell id="btig7-3qisSnMjI_CleR-145" value="" style="endArrow=none;html=1;rounded=0;curved=0;endFill=0;dashed=1;" edge="1" parent="btig7-3qisSnMjI_CleR-139">
          <mxGeometry width="50" height="50" relative="1" as="geometry">
            <mxPoint x="50" y="9.940000000000055" as="sourcePoint" />
            <mxPoint x="90" y="9.940000000000055" as="targetPoint" />
          </mxGeometry>
        </mxCell>
        <mxCell id="btig7-3qisSnMjI_CleR-146" value="" style="verticalLabelPosition=bottom;shadow=0;dashed=0;align=center;html=1;verticalAlign=top;strokeWidth=1;shape=ellipse;" vertex="1" parent="btig7-3qisSnMjI_CleR-139">
          <mxGeometry x="110" width="20" height="20" as="geometry" />
        </mxCell>
        <mxCell id="btig7-3qisSnMjI_CleR-147" value="" style="verticalLabelPosition=bottom;shadow=0;dashed=0;align=center;html=1;verticalAlign=top;strokeWidth=1;shape=ellipse;" vertex="1" parent="btig7-3qisSnMjI_CleR-139">
          <mxGeometry x="116.5" y="6.5" width="7" height="7" as="geometry" />
        </mxCell>
        <mxCell id="btig7-3qisSnMjI_CleR-148" value="" style="endArrow=none;html=1;rounded=0;curved=0;endFill=0;" edge="1" parent="btig7-3qisSnMjI_CleR-139">
          <mxGeometry width="50" height="50" relative="1" as="geometry">
            <mxPoint x="90" y="10.020000000000095" as="sourcePoint" />
            <mxPoint x="120" y="9.940000000000055" as="targetPoint" />
          </mxGeometry>
        </mxCell>
        <mxCell id="btig7-3qisSnMjI_CleR-149" style="edgeStyle=orthogonalEdgeStyle;rounded=0;orthogonalLoop=1;jettySize=auto;html=1;exitX=0.5;exitY=1;exitDx=0;exitDy=0;entryX=0;entryY=0;entryDx=0;entryDy=5.321001406069172;entryPerimeter=0;endArrow=none;endFill=0;" edge="1" parent="btig7-3qisSnMjI_CleR-139" source="btig7-3qisSnMjI_CleR-142" target="btig7-3qisSnMjI_CleR-141">
          <mxGeometry relative="1" as="geometry" />
        </mxCell>
        <mxCell id="btig7-3qisSnMjI_CleR-172" value="" style="group" vertex="1" connectable="0" parent="1">
          <mxGeometry x="210" y="200" width="20" height="20" as="geometry" />
        </mxCell>
        <mxCell id="btig7-3qisSnMjI_CleR-164" value="" style="verticalLabelPosition=bottom;shadow=0;dashed=0;align=center;html=1;verticalAlign=top;strokeWidth=1;shape=ellipse;" vertex="1" parent="btig7-3qisSnMjI_CleR-172">
          <mxGeometry width="20" height="20" as="geometry" />
        </mxCell>
        <mxCell id="btig7-3qisSnMjI_CleR-165" value="" style="verticalLabelPosition=bottom;shadow=0;dashed=0;align=center;html=1;verticalAlign=top;strokeWidth=1;shape=ellipse;" vertex="1" parent="btig7-3qisSnMjI_CleR-172">
          <mxGeometry x="6.5" y="6.5" width="7" height="7" as="geometry" />
        </mxCell>
        <mxCell id="btig7-3qisSnMjI_CleR-173" value="" style="group" vertex="1" connectable="0" parent="1">
          <mxGeometry x="350" y="75" width="20" height="20" as="geometry" />
        </mxCell>
        <mxCell id="btig7-3qisSnMjI_CleR-168" value="" style="verticalLabelPosition=bottom;shadow=0;dashed=0;align=center;html=1;verticalAlign=top;strokeWidth=1;shape=ellipse;" vertex="1" parent="btig7-3qisSnMjI_CleR-173">
          <mxGeometry width="20" height="20" as="geometry" />
        </mxCell>
        <mxCell id="btig7-3qisSnMjI_CleR-169" value="" style="verticalLabelPosition=bottom;shadow=0;dashed=0;align=center;html=1;verticalAlign=top;strokeWidth=1;shape=ellipse;" vertex="1" parent="btig7-3qisSnMjI_CleR-173">
          <mxGeometry x="6.5" y="6.5" width="7" height="7" as="geometry" />
        </mxCell>
        <mxCell id="btig7-3qisSnMjI_CleR-176" value="" style="group" vertex="1" connectable="0" parent="1">
          <mxGeometry x="350" y="110" width="20" height="130" as="geometry" />
        </mxCell>
        <mxCell id="btig7-3qisSnMjI_CleR-175" value="" style="group" vertex="1" connectable="0" parent="btig7-3qisSnMjI_CleR-176">
          <mxGeometry width="20" height="20" as="geometry" />
        </mxCell>
        <mxCell id="btig7-3qisSnMjI_CleR-157" value="" style="verticalLabelPosition=bottom;shadow=0;dashed=0;align=center;html=1;verticalAlign=top;strokeWidth=1;shape=ellipse;rotation=-90;" vertex="1" parent="btig7-3qisSnMjI_CleR-175">
          <mxGeometry width="20" height="20" as="geometry" />
        </mxCell>
        <mxCell id="btig7-3qisSnMjI_CleR-158" value="" style="verticalLabelPosition=bottom;shadow=0;dashed=0;align=center;html=1;verticalAlign=top;strokeWidth=1;shape=ellipse;rotation=-90;" vertex="1" parent="btig7-3qisSnMjI_CleR-175">
          <mxGeometry x="6.5" y="6.5" width="7" height="7" as="geometry" />
        </mxCell>
        <mxCell id="btig7-3qisSnMjI_CleR-151" style="edgeStyle=orthogonalEdgeStyle;rounded=0;orthogonalLoop=1;jettySize=auto;html=1;exitX=0;exitY=1;exitDx=0;exitDy=-5.321001406069172;exitPerimeter=0;entryX=0.5;entryY=1;entryDx=0;entryDy=0;endArrow=none;endFill=0;" edge="1" parent="btig7-3qisSnMjI_CleR-176" source="btig7-3qisSnMjI_CleR-152" target="btig7-3qisSnMjI_CleR-157">
          <mxGeometry relative="1" as="geometry" />
        </mxCell>
        <mxCell id="btig7-3qisSnMjI_CleR-152" value="" style="shape=cylinder3;whiteSpace=wrap;html=1;boundedLbl=1;backgroundOutline=1;size=5.321001406069172;direction=north;rotation=-90;" vertex="1" parent="btig7-3qisSnMjI_CleR-176">
          <mxGeometry x="-15" y="55" width="50" height="20" as="geometry" />
        </mxCell>
        <mxCell id="btig7-3qisSnMjI_CleR-156" value="" style="endArrow=none;html=1;rounded=0;curved=0;endFill=0;dashed=1;" edge="1" parent="btig7-3qisSnMjI_CleR-176">
          <mxGeometry width="50" height="50" relative="1" as="geometry">
            <mxPoint x="10" y="80" as="sourcePoint" />
            <mxPoint x="10" y="40" as="targetPoint" />
          </mxGeometry>
        </mxCell>
        <mxCell id="btig7-3qisSnMjI_CleR-159" value="" style="endArrow=none;html=1;rounded=0;curved=0;endFill=0;" edge="1" parent="btig7-3qisSnMjI_CleR-176">
          <mxGeometry width="50" height="50" relative="1" as="geometry">
            <mxPoint x="10" y="40" as="sourcePoint" />
            <mxPoint x="10" y="10" as="targetPoint" />
          </mxGeometry>
        </mxCell>
        <mxCell id="btig7-3qisSnMjI_CleR-160" style="edgeStyle=orthogonalEdgeStyle;rounded=0;orthogonalLoop=1;jettySize=auto;html=1;exitX=0.5;exitY=1;exitDx=0;exitDy=0;entryX=0;entryY=0;entryDx=0;entryDy=5.321001406069172;entryPerimeter=0;endArrow=none;endFill=0;" edge="1" parent="btig7-3qisSnMjI_CleR-176" source="btig7-3qisSnMjI_CleR-153" target="btig7-3qisSnMjI_CleR-152">
          <mxGeometry relative="1" as="geometry" />
        </mxCell>
        <mxCell id="btig7-3qisSnMjI_CleR-174" value="" style="group" vertex="1" connectable="0" parent="btig7-3qisSnMjI_CleR-176">
          <mxGeometry y="110" width="20" height="20" as="geometry" />
        </mxCell>
        <mxCell id="btig7-3qisSnMjI_CleR-153" value="" style="verticalLabelPosition=bottom;shadow=0;dashed=0;align=center;html=1;verticalAlign=top;strokeWidth=1;shape=ellipse;rotation=-90;" vertex="1" parent="btig7-3qisSnMjI_CleR-174">
          <mxGeometry width="20" height="20" as="geometry" />
        </mxCell>
        <mxCell id="btig7-3qisSnMjI_CleR-154" value="" style="verticalLabelPosition=bottom;shadow=0;dashed=0;align=center;html=1;verticalAlign=top;strokeWidth=1;shape=ellipse;rotation=-90;" vertex="1" parent="btig7-3qisSnMjI_CleR-174">
          <mxGeometry x="6.5" y="6.5" width="7" height="7" as="geometry" />
        </mxCell>
        <mxCell id="btig7-3qisSnMjI_CleR-155" value="" style="endArrow=none;html=1;rounded=0;curved=0;endFill=0;sourcePerimeterSpacing=0;strokeColor=default;" edge="1" parent="btig7-3qisSnMjI_CleR-176">
          <mxGeometry width="50" height="50" relative="1" as="geometry">
            <mxPoint x="10" y="120" as="sourcePoint" />
            <mxPoint x="10" y="80" as="targetPoint" />
          </mxGeometry>
        </mxCell>
        <mxCell id="btig7-3qisSnMjI_CleR-177" value="" style="curved=1;endArrow=none;html=1;rounded=0;endFill=0;entryX=0.5;entryY=0.5;entryDx=0;entryDy=0;entryPerimeter=0;" edge="1" parent="1" target="btig7-3qisSnMjI_CleR-169">
          <mxGeometry width="50" height="50" relative="1" as="geometry">
            <mxPoint x="270" y="130" as="sourcePoint" />
            <mxPoint x="370" y="150" as="targetPoint" />
            <Array as="points">
              <mxPoint x="310" y="130" />
              <mxPoint x="310" y="80" />
            </Array>
          </mxGeometry>
        </mxCell>
        <mxCell id="btig7-3qisSnMjI_CleR-179" value="&lt;i&gt;as short&lt;/i&gt;&lt;div&gt;&lt;i&gt;as possible&lt;/i&gt;&lt;/div&gt;" style="text;html=1;align=left;verticalAlign=middle;resizable=0;points=[];autosize=1;strokeColor=none;fillColor=none;rotation=90;" vertex="1" parent="1">
          <mxGeometry x="236.75" y="280" width="80" height="40" as="geometry" />
        </mxCell>
        <mxCell id="btig7-3qisSnMjI_CleR-183" value="&lt;i&gt;as short&lt;/i&gt;&lt;div style=&quot;&quot;&gt;&lt;i&gt;as possible&lt;/i&gt;&lt;/div&gt;" style="text;html=1;align=left;verticalAlign=middle;resizable=0;points=[];autosize=1;strokeColor=none;fillColor=none;rotation=90;" vertex="1" parent="1">
          <mxGeometry x="405" y="280" width="80" height="40" as="geometry" />
        </mxCell>
        <mxCell id="btig7-3qisSnMjI_CleR-186" value="DC&amp;nbsp;&lt;span style=&quot;background-color: initial;&quot;&gt;out Hi&lt;/span&gt;" style="text;html=1;align=right;verticalAlign=middle;resizable=0;points=[];autosize=1;strokeColor=none;fillColor=none;" vertex="1" parent="1">
          <mxGeometry x="505" y="230" width="80" height="30" as="geometry" />
        </mxCell>
        <mxCell id="btig7-3qisSnMjI_CleR-187" value="AC out" style="text;html=1;align=left;verticalAlign=middle;resizable=0;points=[];autosize=1;strokeColor=none;fillColor=none;" vertex="1" parent="1">
          <mxGeometry x="376" y="105" width="60" height="30" as="geometry" />
        </mxCell>
        <mxCell id="btig7-3qisSnMjI_CleR-191" value="V" style="ellipse;whiteSpace=wrap;html=1;aspect=fixed;" vertex="1" parent="1">
          <mxGeometry x="650" y="190" width="20" height="20" as="geometry" />
        </mxCell>
        <mxCell id="btig7-3qisSnMjI_CleR-192" value="" style="group" vertex="1" connectable="0" parent="1">
          <mxGeometry x="487.73" y="190" width="27.27" height="30" as="geometry" />
        </mxCell>
        <mxCell id="btig7-3qisSnMjI_CleR-9" value="" style="pointerEvents=1;verticalLabelPosition=bottom;shadow=0;dashed=0;align=center;html=1;verticalAlign=top;shape=mxgraph.electrical.resistors.resistor_1;" vertex="1" parent="btig7-3qisSnMjI_CleR-192">
          <mxGeometry y="24.545454545454543" width="27.27" height="5.454545454545454" as="geometry" />
        </mxCell>
        <mxCell id="btig7-3qisSnMjI_CleR-10" value="" style="pointerEvents=1;verticalLabelPosition=bottom;shadow=0;dashed=0;align=center;html=1;verticalAlign=top;shape=mxgraph.electrical.miscellaneous.thermopile" vertex="1" parent="btig7-3qisSnMjI_CleR-192">
          <mxGeometry x="2.727" width="21.816" height="22.363636363636363" as="geometry" />
        </mxCell>
        <mxCell id="btig7-3qisSnMjI_CleR-193" value="" style="verticalLabelPosition=bottom;shadow=0;dashed=0;align=center;html=1;verticalAlign=top;shape=mxgraph.electrical.abstract.dac;" vertex="1" parent="1">
          <mxGeometry x="140" y="284.74" width="16" height="10.51" as="geometry" />
        </mxCell>
        <mxCell id="btig7-3qisSnMjI_CleR-199" value="" style="curved=1;endArrow=none;html=1;rounded=0;exitX=0.5;exitY=0.5;exitDx=0;exitDy=0;exitPerimeter=0;endFill=0;entryX=1;entryY=0.5;entryDx=0;entryDy=0;" edge="1" parent="1" target="btig7-3qisSnMjI_CleR-196">
          <mxGeometry width="50" height="50" relative="1" as="geometry">
            <mxPoint x="220" y="210" as="sourcePoint" />
            <mxPoint x="330" y="120" as="targetPoint" />
            <Array as="points">
              <mxPoint x="210" y="130" />
            </Array>
          </mxGeometry>
        </mxCell>
        <mxCell id="btig7-3qisSnMjI_CleR-200" value="choke" style="text;html=1;align=center;verticalAlign=middle;resizable=0;points=[];autosize=1;strokeColor=none;fillColor=none;" vertex="1" parent="1">
          <mxGeometry x="220" y="88" width="60" height="30" as="geometry" />
        </mxCell>
      </root>
    </mxGraphModel>
  </diagram>
</mxfile>
